<?xml version="1.0" encoding="UTF-8"?>
<svg id="a" data-name="图层 3" xmlns="http://www.w3.org/2000/svg" viewBox="0 0 474.58 450.54">
  <defs>
    <style>
      .b {
        fill: #040000;
      }
    </style>
  </defs>
  <path class="b" d="M363.48,29.18c19.12-.5,42.12,8.18,57.95,24.01s24.51,38.84,24,57.96c.51,19.12-8.17,42.12-24,57.96-15.83,15.84-38.83,24.52-57.95,24.02l-156.58.03c-11.39-1.15-24.29,11.75-23.14,23.14v211.01c-1.15,11.39,11.75,24.29,23.14,23.14,11.39,1.15,24.29-11.75,23.14-23.14v-152.31c-.15-5.15,3.38-10.3,8.22-12.3,4.84-2,10.98-.86,14.51,2.89l180.66,180.66c2.56,2.63,6.48,4.26,10.15,4.21h8.41c4.35.44,9.29-4.49,8.85-8.85v-111.21c.43-4.23-4.36-9.02-8.59-8.59-4.23-.43-9.02,4.36-8.59,8.59v52.77c.15,5.15-3.38,10.3-8.22,12.3-4.84,2-10.98.86-14.51-2.89l-147.59-147.59c-3.75-3.53-4.89-9.67-2.89-14.51,2-4.84,7.15-8.37,12.3-8.22l80.73-.02c25.91.68,57.07-11.08,78.53-32.55,21.46-21.46,33.21-52.63,32.53-78.54.69-25.91-11.07-57.08-32.53-78.54C420.56,11.14,389.4-.62,363.49.06L32.49,0C24.09-.07,15.6,3.47,9.59,9.48,3.57,15.5.03,23.98.1,32.39v385.67c-1.62,15.94,16.45,34,32.38,32.38,15.94,1.62,34-16.45,32.38-32.38v-181.24c-.73-7.16,7.39-15.28,14.55-14.55h60.13c7.16.73,15.28-7.39,14.55-14.55.73-7.16-7.39-15.28-14.55-14.55h-60.13c-7.16.73-15.28-7.39-14.55-14.55V43.66c-.03-3.78,1.56-7.59,4.26-10.29,2.7-2.7,6.52-4.29,10.29-4.26l284.06.06"/>
</svg>